<?xml version="1.0" encoding="UTF-8"?>
<svg id="Layer_1" data-name="Layer 1" xmlns="http://www.w3.org/2000/svg" viewBox="0 0 1186.53 365.93">
  <defs>
    <style>
      .cls-1 {
        fill: #0C4D73;
      }
    </style>
  </defs>
  <g>
    <path class="cls-1" d="M365.7,177.75c-3.52,3.87-2.36,12.8,1.33,16.56,10.89,11.1,38.84,7.23,46.53,29.8,13.17,38.63-34.39,57.37-59.62,38.47-7.36-5.52-16.25-18.48-9.11-27.71,7.81,19.72,62.74,23.23,50.77-3.64-4.65-10.44-46.36-10.79-49.8-36.99-4.35-33.07,22.45-42.35,47.76-38.05,4.22.72,15.98,5.13,17.26,9.8,6.9,25.11-14.24,8.69-25.07,7.76-4.74-.41-16.75.36-20.06,4Z"/>
    <path class="cls-1" d="M624.04,267.18c-2.93-.53-17.4.73-18.02.02-.7-.8,1.2-6.37-.8-7.2-16.59,19.61-44.62,6.63-49.23-17.88-6.87-36.52,20.27-67.48,50.04-43.24v-41.34c5.36-2.3,18.01,3.61,18.01,9.88v99.74ZM577.06,245.07c8.58,10.16,26.26,6,28.57-7.96,2.49-15.02-2.29-29.47-18.28-27.39-14.82,1.93-18.77,25.31-10.29,35.35Z"/>
    <path class="cls-1" d="M1049.37,192.13c24.94-4.6,44.75,9.02,44.78,38.21.05,53.53-75.61,54.54-68.92-8.99,1.3-12.33,12.82-27.13,24.14-29.22ZM1055.94,210.07c-19.83,3.6-16.71,42.57,4.29,40.88,22.48-1.81,20.07-45.31-4.29-40.88Z"/>
    <path class="cls-1" d="M956.46,236.63h-45.85c4.82,24.23,29.1,15.22,44.2,8.99-.92,33.55-48.96,29.86-59,2.75-23.66-63.89,69.27-83.05,60.65-11.75ZM938.44,222.25c.79-21.14-24.76-18.27-27.84,0h27.84Z"/>
    <path class="cls-1" d="M655.15,236.63c4.77,24.16,29.02,15.28,44.2,8.99.66,24.45-27.48,28.1-43.67,20.07-17.95-8.9-22.41-33.41-16.05-52.38,10.92-32.56,57.98-29.17,61.37,8.02.26,2.86.72,15.3-2.46,15.3h-43.39ZM655.15,222.25h27.84c-.04-21.21-24.76-18.24-27.84,0Z"/>
    <path class="cls-1" d="M777.97,267.18h-18.01v-45.83c0-16.12-27.84-13.89-27.84-1.8v47.63h-18.01v-72.79c0-9.35,16.19,6.21,17.19,6.21.71,0,6.77-7.35,11.84-8.5,10.79-2.44,23.73.58,29.94,11.25,1.13,1.94,4.9,12.97,4.9,14.39v49.42Z"/>
    <path class="cls-1" d="M478.3,193.5c26.12-4.85,16,24.56,18.16,42.08,3.02,24.56,27.69,16.12,27.69,3.75v-44.93c0-4.4,10.02-.9,12.36.82,9.64,7.08,6.3,47.91,1.08,58.86-7.64,16.03-30.59,19.29-44.06,11.67-7.97-4.51-15.23-20.77-15.23-30.01v-42.23Z"/>
    <path class="cls-1" d="M1011.97,211.3c-2.36,1.79-26.86-10.45-27.79,1.09-.67,8.25,16.54,10.82,22.56,14.88,10.49,7.07,12.54,20.88,5.41,31.84-10.99,16.86-47.67,11.89-47.61-9.03.03-11.47,6.26-1.72,11.18.45,12.4,5.46,32.04-.51,19.02-10.11-11.3-8.33-29.72-4.98-28.57-28.11,1.28-25.66,41.41-25.56,46.82-13.44,1.22,2.72.62,11.18-1.01,12.42Z"/>
    <path class="cls-1" d="M434.09,166.54c9.57-.49,16.19,2.72,17.91,13.59.42,2.69-.29,11.15.1,11.58.99,1.1,13.33-2.03,15.67,1.67,1.07,1.69,1.31,14.57.48,16.03-1.91,3.39-16.15,1.16-16.15,2.05v55.71h-18.01v-55.71c0-2.08-13.2,6.97-13.2-9.88,0-16.86,13.2-7.81,13.2-9.88v-25.16Z"/>
    <path class="cls-1" d="M800.89,166.54c14.26-1.44,20.02,11.01,18,25.17,15.78-1.76,17.79-.02,16.15,17.7-2.58,3.3-16.14,1.16-16.14,2.06v55.71h-18.01v-55.71c0-2.08-13.2,6.97-13.2-9.88,0-16.86,13.2-7.81,13.2-9.88v-25.16Z"/>
    <path class="cls-1" d="M845.1,193.5c6.73-2.23,14.95.39,16.4,8.99,3.72-5.4,20.28-15.31,23.7-7.18,1.24,2.94,1.65,12.11.12,14.49-1.98,3.07-12.6.51-17.23,4.45-1.26,1.08-4.98,9.66-4.98,10.7v42.23c-3.28-.25-18.01,1.43-18.01-2.7v-70.99Z"/>
    <path class="cls-1" d="M1107.11,194.4c1.59-6.25,16.62,1.48,17.19,8.11-.19-7.41,19.31-12.77,21.35-9.09,1.06,1.9,1.35,17.43.77,18.07-.94,1.02-21.3-3.01-21.3,11.67v44.03h-18.01v-72.79Z"/>
  </g>
  <path class="cls-1" d="M32.89,265.39c-2.99-67.19,37.96-133.41,94.55-157.73,74.73-32.12,181.85,5.65,183.82,105.6l-7.28-18.04c-42.2-90.25-155.73-108.3-218.73-33.22-16.1,19.19-49.63,75.11-12.73,87.75,24.2,8.29,91.8,2.29,115.9-8.66,6.56-2.98,12.24-7.3,18.03-11.65,2.04,2.76-13.36,32.1-17.18,35.94H32.89Z"/>
  <path class="cls-1" d="M308,265.39h-24.56v-33.25l-4.9-15.27c1.93,18.25-5.32,33.33-13.12,48.52h-37.66c1.99-51.54-16.02-114.82-67.13-127.62-.48-2.36,1.7-2.12,3.26-2.65,44.52-15.3,105.87,20.27,125.89,64.9,9.29,20.7,9.24,44.64,18.22,65.37Z"/>
  <path class="cls-1" d="M203.19,177.31c-23.95-11.03-22.38,3.45-35.21,14.39-17.42,14.85-38-2.63-19.71-21.64,14.72-15.3,43.74-11.68,54.93,7.25Z"/>
  <path class="cls-1" d="M211.38,193.48c-17.28-3.82-14.52,7.06-22.27,16.02-10.58,12.23-26.07,10.19-17.32-10.03s26.64-21.18,39.59-5.99Z"/>
  <path class="cls-1" d="M180.27,153.94c-7.98-.61-14.94.25-22.42,3.26-2.73,1.1-4.79,4.48-8.21,5.36-25.51,6.51-22.14-23.61,2.01-23.1,10.13.21,21.68,6.45,28.62,14.48Z"/>
  <path class="cls-1" d="M217.76,265.19c-1.44,1.35-15.97-.55-19.48.18,11.03-17.51,15.81-36.18,16.39-57.48l4.88,17.08c.44,5.68.55,38.03-1.8,40.22Z"/>
</svg>
